<svg xmlns="http://www.w3.org/2000/svg" width="321.774" height="217.199" viewBox="0 0 321.774 217.199"><defs><style>.a{fill:#fec809;}.b{fill:#fdc80a;}.c{fill:#fcc809;}.d{fill:#fcc80a;}.e{fill:#fcc80b;}.f{fill:#fbc70d;}.g{fill:#fec808;}.h{fill:#fdfdfd;}.i{fill:#fdc809;}.j{fill:#fefefe;}</style></defs><g transform="translate(0 0.12)"><path class="a" d="M825.868,566.837a22.738,22.738,0,0,0,4.377.758,45.84,45.84,0,0,1,33.267,25.569,44.435,44.435,0,0,1,3.826,13.074,69.336,69.336,0,0,1,.5,9.227q-.014,18.154,0,36.308c0,1.432.016,1.378-1.349.892q-5.51-1.933-11.056-3.769a1.532,1.532,0,0,1-1.26-1.735c.063-4.324,0-8.652.052-12.976.013-1.023-.247-1.3-1.287-1.293-9.83.042-19.661.024-29.493.02a1.877,1.877,0,0,1-1.561-.422c-4.3-4.342-8.634-8.652-13.114-13.128l1.9-.129a2.747,2.747,0,0,1,1.035-.08h40.139a2.789,2.789,0,0,1,1.035.078c.912.19,1.367-.076,1.338-1.115-.065-2.152-.044-4.3-.06-6.467-.223-.6.078-1.262-.189-1.86a29.739,29.739,0,0,0-5.6-15.592A30.885,30.885,0,0,0,829.7,581.476a23.443,23.443,0,0,0-5.075-.8,20.163,20.163,0,0,0-4.567,0,29.942,29.942,0,0,0-17.757,6.938,31.338,31.338,0,0,0-10.6,16.082,21.092,21.092,0,0,0-.985,6.108c-.283.591.031,1.244-.194,1.842-.016,3.015-.045,6.021-.045,9.045,0,13.286.016,26.572-.029,39.858,0,1.188.286,1.5,1.483,1.5q37.1-.056,74.211-.025c1.958,0,1.7-.272,1.706,1.762.013,3.584-.031,7.167.027,10.751.016.95-.287,1.14-1.179,1.137q-44.376-.034-88.752,0c-.83,0-1.115-.181-1.115-1.068.043-21.546,0-43.092.119-64.637a40.962,40.962,0,0,1,3.855-16.214,45.1,45.1,0,0,1,6.213-10.153A44.4,44.4,0,0,1,798.645,573.5a46.605,46.605,0,0,1,14.626-5.76,36.013,36.013,0,0,0,5.01-.925h5.245a1.42,1.42,0,0,0,1.311,0Z" transform="translate(-661.467 -566.93)"/><path class="a" d="M1590.189,1285.7c-10.271,0-20.542-.024-30.811.029-1.193,0-1.423-.339-1.418-1.463q.064-18.618,0-37.24c0-1.115.234-1.468,1.423-1.461q14.421.081,28.844,0c1.1,0,1.443.346,1.4,1.432-.078,1.92-.087,3.849,0,5.767.05,1.037-.321,1.215-1.264,1.211-6.206-.04-12.412,0-18.618-.045-1.088,0-1.425.255-1.358,1.358a38.122,38.122,0,0,1,0,4.979c-.08,1.173.379,1.338,1.405,1.318,5.506-.049,11.014,0,16.519-.049,1.055,0,1.32.3,1.278,1.307-.08,1.92-.065,3.847,0,5.767.025.845-.206,1.115-1.081,1.1-2.358-.047-4.719,0-7.078.027-3.094.183-6.191.026-9.286.085a4.39,4.39,0,0,0-1.561.1,41.633,41.633,0,0,0-.067,7.379,2.528,2.528,0,0,0,1.407.129q9.426,0,18.852.013a2.828,2.828,0,0,1,1.413.12Z" transform="translate(-1268.416 -1094.329)"/><path class="a" d="M1077.213,1285.694c-3.9,0-7.568-.018-11.232.018-.585,0-.734-.35-.926-.715-1.67-3.156-3.345-6.307-4.975-9.486-.319-.627-.64-.972-1.352-.838-.925.176-1.369-.29-1.746-1.1-1.115-2.382-2.39-4.682-3.369-7.281h5.858c5.595.025,7.553-3.96,6.342-8.565a5.357,5.357,0,0,0-4.359-3.53c-2.823-.4-5.651-.1-8.474-.249-.939-.049-1.146.267-1.144,1.171.031,9.745,0,19.492.043,29.239,0,1.1-.292,1.4-1.377,1.367-2.707-.078-5.418-.047-8.128-.011-.72,0-.977-.169-.974-.941q.034-19.078,0-38.155c0-.8.223-1.041,1.03-1.037,5.856.036,11.716-.091,17.567.065,4.135.112,8.158.834,11.547,3.582a11.286,11.286,0,0,1,4.157,6.825c.892,4.705.357,9.214-2.629,13.195a10.043,10.043,0,0,1-3.225,2.8c-.794.446-.872.765-.366,1.544C1072.048,1277.521,1074.537,1281.5,1077.213,1285.694Z" transform="translate(-867.046 -1094.323)"/><path class="a" d="M475.913,1246.935c-.491-1.019-.17-1.323.945-1.316,6.088.038,12.176,0,18.263,0,.395.283.879,0,1.285.2,3.7.3,7.136,1.26,10,3.773a12.291,12.291,0,0,1,3.938,7.787,16.913,16.913,0,0,1-1.023,8.77,11.405,11.405,0,0,1-5.018,5.914c-.816.475-.838.823-.337,1.589,2.453,3.757,4.857,7.557,7.267,11.346a5.78,5.78,0,0,1,.314.729c-3.769,0-7.453-.015-11.136.013-.714,0-.859-.53-1.077-.954-1.508-2.91-3.01-5.823-4.446-8.769-.446-.93-1-1.516-2.089-1.322-.72.127-1.024-.194-1.307-.838-.892-2.007-1.851-3.98-2.794-5.963a3.109,3.109,0,0,1-.446-1.561c1.991,0,3.991.042,5.99,0,2.321-.06,4.411-.712,5.591-2.917a6.572,6.572,0,0,0-.33-7.093,5.535,5.535,0,0,0-4.542-2.275c-2.834-.1-5.675.011-8.512.033a2.585,2.585,0,0,0-.129,1.412q-.014,14.421-.013,28.84a2.588,2.588,0,0,1-.132,1.411h-10.2c-.236-.259-.156-.578-.156-.874v-37.283a1.691,1.691,0,0,1,.087-.658Z" transform="translate(-427.488 -1094.368)"/><path class="a" d="M1258.759,1277.444c.279.149.62.129.609.669q-.065,3.387.024,6.777c.02.778-.27.93-.979.928q-15.137-.029-30.274,0c-.906,0-1.046-.348-.892-1.082a2.072,2.072,0,0,0,.089-.892v-36.479a1.2,1.2,0,0,0-.1-.636c-.288-1.164.5-1.026,1.213-1.026h30.122a.425.425,0,0,1,.223.428c-.069,2.643.147,5.287-.116,7.928-6.6,0-13.2.029-19.8,0-.961,0-1.291.2-1.233,1.211a42.653,42.653,0,0,1,0,5.111c-.074,1.155.357,1.338,1.4,1.338,5.464-.051,10.927,0,16.39-.045.986,0,1.4.187,1.338,1.273-.122,2.078-.183,4.168-.109,6.244.029.794-.359.627-.756.631-2.315.022-4.631.033-6.946.047-3.258.188-6.521.025-9.781.087a2.516,2.516,0,0,0-1.4.132,54.723,54.723,0,0,0,0,7.341,1.056,1.056,0,0,0,.751.136h19.581A1.324,1.324,0,0,0,1258.759,1277.444Z" transform="translate(-1011.397 -1094.429)"/><path class="a" d="M287.014,1270l-5.2-13.685c-.669,1.612-1.3,2.995-1.849,4.4q-4.661,11.917-9.292,23.847a1.529,1.529,0,0,1-1.679,1.188c-3.1-.091-6.2-.034-9.466-.034.736-1.772,1.423-3.467,2.141-5.146q2.973-6.944,5.97-13.879c1.826-4.237,3.668-8.447,5.49-12.677,1.07-2.484,2.165-4.962,3.142-7.484a1.235,1.235,0,0,1,1.409-.928c2.883.034,5.769.038,8.652,0a1.314,1.314,0,0,1,1.456.923q3.154,7.664,6.387,15.3c3.171,7.553,6.326,15.11,9.54,22.643.446,1.051.323,1.3-.834,1.278-2.839-.067-5.682-.08-8.521.011a1.546,1.546,0,0,1-1.713-1.148c-.649-1.691-1.338-3.365-1.924-5.076a1.143,1.143,0,0,0-1.307-.907c-3.539.036-7.08-.018-10.619.042-.892.015-1.184-.223-1.229-1.115-.109-2.23-.326-4.46-.5-6.69.408-.392.914-.18,1.367-.185,2.576-.024,5.151-.011,7.722-.011C286.595,1270.638,287.123,1270.745,287.014,1270Z" transform="translate(-259.53 -1094.36)"/><path class="a" d="M671.574,1252.03c-4.262-.018-8.376,3.187-9.62,8.039-1.115,4.349-.43,8.545,2.725,11.906a10.286,10.286,0,0,0,11.482,2.538,16.2,16.2,0,0,0,5.635-3.436c.391-.366.649-.468,1.057-.02,1.639,1.806,3.278,3.615,4.977,5.365.553.572.375.843-.094,1.309a23.458,23.458,0,0,1-12.6,6.516,20.237,20.237,0,0,1-16.99-4.388,19.273,19.273,0,0,1-7.038-12.555,21.18,21.18,0,0,1,1.385-12.055,20.125,20.125,0,0,1,8.766-9.471,21.5,21.5,0,0,1,12.336-2.609,22.4,22.4,0,0,1,14.169,6.243c.35.337.606.631.082,1.227-1.887,2.145-3.655,4.393-5.474,6.607-2.544-2.9-5.468-4.975-9.4-5.238A1.993,1.993,0,0,0,671.574,1252.03Z" transform="translate(-563.559 -1092.407)"/><path class="a" d="M776.78,1085.377c0-2.4.018-4.807-.02-7.212,0-.669.174-.988.878-.892a5.108,5.108,0,0,0,.656,0q43.99,0,87.981-.034c1.3,0,1.606.339,1.543,1.579-.109,2.181-.036,4.368-.04,6.553-.395.288-.848.15-1.271.15H778.051C777.627,1085.526,777.175,1085.66,776.78,1085.377Z" transform="translate(-661.42 -963.536)"/><path class="a" d="M1407.135,1265.813c0,6.244-.02,12.5.022,18.75,0,.948-.185,1.28-1.207,1.249q-3.928-.119-7.864,0c-1.073.033-1.383-.223-1.376-1.338.047-9.571,0-19.144.051-28.715,0-1.115-.2-1.515-1.414-1.479-3.144.094-6.293,0-9.439.051-.863.013-1.115-.239-1.086-1.095.059-2.141.049-4.284,0-6.425-.018-.823.181-1.146,1.077-1.142q10.1.051,20.192,0c.916,0,1.06.331,1.057,1.135C1407.124,1253.133,1407.135,1259.471,1407.135,1265.813Z" transform="translate(-1133.885 -1094.407)"/><path class="a" d="M909.3,1271.783a1.915,1.915,0,0,0-.067-1.277c-2.453-.31-4.906-.042-7.359-.143a13.8,13.8,0,0,1-3.345-.148c-1.115-2.4-2.23-4.816-3.385-7.2-.379-.785-.152-.921.633-.914,3.923.029,7.845.014,11.767.014,1.869,0,1.869,0,1.829-1.911a5.678,5.678,0,0,0-.069-.647c.239-3.458.053-6.913.1-10.385a8.352,8.352,0,0,0-.1-2.322c-.051-.892.207-1.3,1.246-1.262,2.7.089,5.417.06,8.124.016.85-.013,1.115.223,1.115,1.1q-.04,19,0,38.007c0,.811-.223,1.039-1.026,1.026-2.794-.047-5.593-.058-8.387,0-.854.02-1.066-.335-1.071-1.043a61.5,61.5,0,0,0,.1-6.784A50.612,50.612,0,0,0,909.3,1271.783Z" transform="translate(-753.267 -1094.339)"/><path class="a" d="M839.649,1246.482c-.428-.893.257-.763.736-.765q4.741-.014,9.481,0c.31.283.181.656.181.988v38.1c0,.339.1.7-.147,1.01h-9.158c-.419,0-1.021.254-1.093-.524a2.316,2.316,0,0,1-.08-.905V1247.4A2.383,2.383,0,0,1,839.649,1246.482Z" transform="translate(-710.18 -1094.438)"/><path class="a" d="M776.841,1136.46c-.018-2.6-.018-2.6,2.56-2.6h86.413c2.042,0,2.042,0,2.038,2.07,0,.174,0,.35-.014.524-.395.283-.847.147-1.271.147H778.116A2.043,2.043,0,0,1,776.841,1136.46Z" transform="translate(-661.481 -1007.531)"/><path class="a" d="M1491,1245.657c3.4,0,6.543.027,9.687-.018.8-.011,1.062.2,1.042,1.019-.053,2.23-.046,4.46,0,6.69.016.753-.223.976-.968.954-1.659-.049-3.321,0-4.981-.018-.371,0-.729.08-.959-.428C1493.586,1251.156,1492.313,1248.482,1491,1245.657Z" transform="translate(-1216.388 -1094.383)"/><path class="b" d="M880.213,1477.291H881.5a19.224,19.224,0,0,1,.141,4.371,33.757,33.757,0,0,1-.065,4.531l.027,1.606a9.909,9.909,0,0,1-.1,3.122c-.943.152-1.294-.658-1.728-1.18-2.295-2.756-4.529-5.575-6.793-8.349a3.26,3.26,0,0,0-.636-.433v8.775c0,.555.252,1.242-.812,1.215-.968-.022-.749-.631-.749-1.153q-.011-5.76,0-11.52c0-.332-.245-.827.332-.97.446-.112.669.185.939.517q3.488,4.358,7.033,8.67c.223.276.4.683.859.709a41.975,41.975,0,0,0,.138-5.405A36.575,36.575,0,0,1,880.213,1477.291Z" transform="translate(-734.441 -1274.372)"/><path class="c" d="M765.679,1482.424a5.964,5.964,0,0,1,4.139-5.8,7.422,7.422,0,0,1,7.332,1.137c.413.3.669.547.2,1.115-.508.613-.756.243-1.151-.049a5.629,5.629,0,0,0-8.57,6.962,5.462,5.462,0,0,0,6.155,2.812c.292-.076.586-.151.874-.247a3,3,0,0,0,1.753-3.985c-.194-.431-.54-.377-.879-.38-1.006,0-2.007-.022-3.015,0-.542.016-.783-.131-.772-.731s.35-.6.769-.593c1.748,0,3.5,0,5.243.013a20.971,20.971,0,0,1,.056,5.232,7.2,7.2,0,0,1-10.927-.315,5.806,5.806,0,0,1-1.2-3.623,3.236,3.236,0,0,1,0-1.55Z" transform="translate(-652.739 -1273.467)"/><path class="d" d="M618.465,1490.2a6.28,6.28,0,0,1-5.392-2.515c-.183-.243-.716-.582-.223-.84.386-.2.829-.892,1.445-.188a5.262,5.262,0,0,0,7.069,1.231,1.656,1.656,0,0,0,.9-1.583,1.71,1.71,0,0,0-.957-1.677,17.118,17.118,0,0,0-4.56-1.258,6.182,6.182,0,0,1-2.453-1.028c-2.23-1.677-1.034-4.714.64-5.487a7.349,7.349,0,0,1,7.174.223,1.748,1.748,0,0,1,.892.892c.1.294.865.471.247.892-.422.292-.85.685-1.429.062-1.608-1.728-3.608-1.541-5.62-.948a2.019,2.019,0,0,0-1.547,2.007c.016.934.78,1.422,1.608,1.641,1.409.374,2.857.611,4.261,1,1.539.428,2.917,1.075,3.292,2.9a3.549,3.549,0,0,1-1.994,3.9A8.546,8.546,0,0,1,618.465,1490.2Z" transform="translate(-533.903 -1273.397)"/><path class="d" d="M1035.7,1490.284c-1.944-.3-3.916-.544-5.006-2.562-.2-.379-.606-.724,0-1.065.446-.25.765-.446,1.26.171a5.365,5.365,0,0,0,6.1,1.61,2.4,2.4,0,0,0,1.867-2.23c.02-1.157-.892-1.63-1.769-1.933-1.657-.568-3.449-.622-5.1-1.256a3.05,3.05,0,0,1-2.3-3.26c-.014-1.61,1.034-2.424,2.279-3.008,2.217-1.042,5.947-.941,7.627,1.271.2.266.778.553.18.892-.334.19-.649.769-1.278.112a5.5,5.5,0,0,0-6.1-.852,1.9,1.9,0,0,0-1.128,1.874,1.654,1.654,0,0,0,1.318,1.561,37.405,37.405,0,0,0,4.516,1.055c2.661.6,3.882,2.591,3.073,4.961a3.316,3.316,0,0,1-2.217,2.025A8.278,8.278,0,0,1,1035.7,1490.284Z" transform="translate(-858.476 -1273.461)"/><path class="b" d="M524.626,1478.73a15.761,15.761,0,0,0-.167,3.98c-.031.727.577.5.952.5,2.214.02,4.429.014,6.646.016.2,1.423.2,1.405-1.115,1.439-2.092.051-4.186-.14-6.273.1-.5,1.338-.149,2.731-.19,4.1-.018.611.573.392.914.395,2.094.018,4.188,0,6.28.013.526,0,1.148-.193,1.175.759s-.553.794-1.115.794c-2.616,0-5.234-.018-7.849.018-.727,0-.99-.2-.983-.957q.051-5.886,0-11.774c0-.776.285-.946.992-.936,2.486.033,4.975.08,7.457-.018,1.115-.045,1.338.406,1.2,1.338a54.7,54.7,0,0,1-5.733.132A8.94,8.94,0,0,0,524.626,1478.73Z" transform="translate(-464.169 -1274.273)"/><path class="d" d="M1230.586,1477.239h1.322a24.865,24.865,0,0,1,.145,4.886,19.647,19.647,0,0,1-.067,3.489,5.345,5.345,0,0,1-8.028,4.757c-1.376-.95-2.453-2.058-2.48-3.823-.04-2.8-.016-5.6-.018-8.391,0-.482-.091-.945.687-.948.723,0,.872.277.865.93-.022,2.676-.022,5.331.018,8a3.365,3.365,0,0,0,3.345,3.421,3.726,3.726,0,0,0,4-3.236,39.808,39.808,0,0,0,.036-6.139C1230.675,1479.215,1230.343,1478.209,1230.586,1477.239Z" transform="translate(-1006.95 -1274.315)"/><path class="e" d="M1123.317,1477.193c3.271,0,6.543.049,9.812-.037,1.077-.03,1.271.4,1.147,1.277-1.024.417-2.094.08-3.138.194-.5.053-1.026-.136-1.507.136-.239,3.53-.1,7.065-.074,10.595,0,1.211-.334,1.677-1.521,1.46-.3-.446-.14-.93-.149-1.393-.078-3.568.127-7.125-.114-10.684h-.011c-1.477-.3-2.988.088-4.46-.223l-.031-.031A1.431,1.431,0,0,1,1123.317,1477.193Z" transform="translate(-930.557 -1274.271)"/><path class="f" d="M710.942,1483.969c0-1.96.011-3.918,0-5.879,0-.539.029-.9.743-.892.629.014.823.223.821.834q-.029,6.007,0,12.017c0,.636-.223.806-.832.826-.729.023-.736-.372-.734-.892C710.953,1487.976,710.939,1485.972,710.942,1483.969Z" transform="translate(-610.277 -1274.306)"/><path class="g" d="M1421.728,1484.1v5.764c0,.537.078,1.014-.758,1.012-.761,0-.832-.337-.829-.948q.027-5.9,0-11.79c0-.613.067-.947.829-.947.838,0,.758.479.756,1.014C1421.723,1480.169,1421.728,1482.134,1421.728,1484.1Z" transform="translate(-1161.329 -1274.3)"/><path class="h" d="M970.809,801.126c-4.892.016-9.787.045-14.679.042q-13.764,0-27.529-.04c.415-.368.919-.21,1.382-.21q19.722-.013,39.444,0C969.888,800.9,970.389,800.751,970.809,801.126Z" transform="translate(-779.401 -748.8)"/><path class="h" d="M475.832,1251.52q.022,10.093.042,20.186.018,9.308.036,18.613c-.479-.361-.286-.892-.286-1.338q-.016-18.109,0-36.216C475.62,1252.347,475.487,1251.888,475.832,1251.52Z" transform="translate(-427.406 -1098.953)"/><path class="h" d="M919,1527.562l.1-3.122A4.322,4.322,0,0,1,919,1527.562Z" transform="translate(-771.941 -1311.013)"/><path class="h" d="M564.115,1245.774a1.955,1.955,0,0,1-1.284-.2C563.263,1245.6,563.733,1245.411,564.115,1245.774Z" transform="translate(-495.196 -1094.313)"/><path class="i" d="M433.4,1483.027a6.487,6.487,0,0,0-4.857-5.59c-1.773-.446-3.568-.094-5.325-.259-1.055-.1-1.383.2-1.394,1.338a92.1,92.1,0,0,1-.176,10.258c-.223,1.806.181,2.058,2.056,2.058h1.311c.7,0,1.4-.016,2.1,0a5.932,5.932,0,0,0,2.121-.515C432.148,1489.3,433.637,1486.688,433.4,1483.027Zm-1.561,1.906a4.875,4.875,0,0,1-4.6,4.317c-1.211.022-2.785.411-3.541-.191-.8-.64-.178-2.282-.257-3.483-.036-.565,0-1.133,0-1.7,0-1.481.016-2.963,0-4.445,0-.564.08-.876.767-.892a20.771,20.771,0,0,1,3.9.247c2.569.488,4.016,2.907,3.728,6.142Z" transform="translate(-385.452 -1274.276)"/><path class="j" d="M1499,1538.541v.486h1.048v-.223C1499.67,1538.845,1499.411,1538.4,1499,1538.541Z" transform="translate(-1222.604 -1321.948)"/><path class="d" d="M1489.394,1477.912c-2.154-2.174-4.942-2.515-7.8-1.452-2.522.937-3.668,2.928-3.949,5.506v2.078a6.689,6.689,0,0,0,4.765,5.818c.457-.352.771-.125,1.048.256a9.354,9.354,0,0,1,1.043-.031,6.879,6.879,0,0,0,6.327-4.326C1491.8,1482.871,1491.547,1480.1,1489.394,1477.912Zm-5.329,10.643a5.31,5.31,0,0,1-5-5.615c.029-3.284,1.989-5.648,5.711-5.479,3.084.141,5.06,2.27,5.013,5.606a5.254,5.254,0,0,1-5.727,5.5Z" transform="translate(-1206.007 -1273.279)"/><path class="d" d="M1499,1538.025c.408-.15.669.305,1.048.256C1499.774,1537.9,1499.46,1537.67,1499,1538.025Z" transform="translate(-1222.604 -1321.431)"/><path class="h" d="M1476.714,1503.23a2.228,2.228,0,0,0,0,2.078A5.6,5.6,0,0,1,1476.714,1503.23Z" transform="translate(-1205.088 -1294.533)"/><path class="h" d="M1477.3,1505.309v-2.078A5.585,5.585,0,0,0,1477.3,1505.309Z" transform="translate(-1205.668 -1294.533)"/><path class="c" d="M1328.377,1479.669l-.8-.821h0a7.787,7.787,0,0,0-2.757-1.338c-2.2-.481-4.415-.127-6.618-.236l-.076,12.573h0c-.357.707-.325,1.115.651,1.075,1.527-.056,3.057.016,4.587-.022a6.585,6.585,0,0,0,6.1-4.8A8.219,8.219,0,0,0,1328.377,1479.669Zm-.248,5.254a4.967,4.967,0,0,1-4.834,4.4c-1.171,0-2.717.4-3.41-.189s-.142-2.2-.2-3.345c-.027-.609,0-1.219,0-1.83,0-1.438.02-2.879,0-4.318-.013-.669.123-1.075.937-.994,1.166.113,2.357.049,3.512.223,2.716.412,4.277,2.827,3.992,6.057Z" transform="translate(-1081.9 -1274.346)"/><path class="h" d="M1318.151,1477.33a.7.7,0,0,0-.292.668V1489.3a1.949,1.949,0,0,0,.205.591C1317.99,1485.713,1317.836,1481.52,1318.151,1477.33Z" transform="translate(-1081.851 -1274.409)"/><path class="h" d="M1318.535,1477.33c-.315,4.19-.159,8.38-.076,12.572h0Z" transform="translate(-1082.235 -1274.409)"/><path class="j" d="M1362.033,1485.24a.715.715,0,0,0-.8-.82h0A1.531,1.531,0,0,1,1362.033,1485.24Z" transform="translate(-1115.556 -1279.917)"/><path class="j" d="M1361.23,1484.42l.8.821A1.529,1.529,0,0,0,1361.23,1484.42Z" transform="translate(-1115.556 -1279.917)"/></g></svg>