<svg xmlns="http://www.w3.org/2000/svg" width="264.002" height="211.941" viewBox="0 0 264.002 211.941"><defs><style>.a{fill:#363636;}.b{fill:#680000;}</style></defs><g transform="translate(-0.035 0.007)"><path class="a" d="M692.719,443.5a40.213,40.213,0,0,1-11.007,10.415,53.177,53.177,0,0,1-21.038,8.209,58.27,58.27,0,0,1-13.85.476,83.1,83.1,0,0,1-24.037-5.64,35.358,35.358,0,0,1-14.913-10.794,28.28,28.28,0,0,1-5.544-10.5,18.288,18.288,0,0,1,1.64-13.73,24.672,24.672,0,0,1,3.527-4.933,34.842,34.842,0,0,1,5.787-5.084,10.877,10.877,0,0,1,3.988-1.876,4.772,4.772,0,0,1,5.064,1.79,9,9,0,0,1,1.763,3.822c.387,1.852.669,3.729.977,5.6a107.627,107.627,0,0,0,4.761,18.849,25.8,25.8,0,0,0,13.647,15,31.97,31.97,0,0,0,13.075,3.333,19.926,19.926,0,0,0,7.489-1.117c5.435-2,8.832-5.927,10.6-11.34a27.545,27.545,0,0,0,1.128-10.676,37.407,37.407,0,0,0-1.925-9.711,29.577,29.577,0,0,0-12.583-15.734c-5.586-3.487-11.258-6.844-16.936-10.193-6.869-4.04-13.787-8.011-20.674-12.026a49.682,49.682,0,0,1-10.7-8.172,31.506,31.506,0,0,1-8.576-15.581,35.278,35.278,0,0,1-.509-10.841,46.194,46.194,0,0,1,2.8-12.275A36.961,36.961,0,0,1,622.235,322.2a47.883,47.883,0,0,1,8.039-3.949,21.609,21.609,0,0,1,5.156-1.07.6.6,0,0,1,.121.144c.531,1.226.542,1.242-.454,2.109a14.077,14.077,0,0,1-1.469,1.094,25.765,25.765,0,0,0-7.716,7.593c-4.517,7.1-4.816,14.4-.887,21.854a28.941,28.941,0,0,0,5.1,6.637,77.57,77.57,0,0,0,11.043,9.02c7.713,5.423,15.74,10.347,23.8,15.221,4.155,2.512,8.284,5.068,12.338,7.737a54.171,54.171,0,0,1,16.014,15.962,35.729,35.729,0,0,1,5.443,14.312A33.154,33.154,0,0,1,692.719,443.5Z" transform="translate(-529.506 -304.736)"/><path class="b" d="M549.359,431.035c-.053.218-.121.433-.195.645-.017.048-.084.079-.227.211-.209-.63-.384-1.179-.577-1.723a39.3,39.3,0,0,0-11.167-16.405,68.61,68.61,0,0,0-13.129-9.089,170.228,170.228,0,0,0-16.3-7.667c-5.644-2.36-11.071-5.149-16.471-8-3.318-1.756-6.68-3.463-9.922-5.36a44.181,44.181,0,0,1-12.161-10.292,41.461,41.461,0,0,1-8.172-17.38,68.645,68.645,0,0,1-1.443-17.731,58.731,58.731,0,0,1,.993-9.386c2.453-12.074,9.417-20.468,20.7-25.317a53.817,53.817,0,0,1,14.5-3.789,70.755,70.755,0,0,1,10.777-.547,33.311,33.311,0,0,1,3.679.289,6.081,6.081,0,0,1-.645.172,29.29,29.29,0,0,0-14.691,7.006,45.65,45.65,0,0,0-14.41,22.815,41.7,41.7,0,0,0-1.5,15.464,38.287,38.287,0,0,0,11.083,23.721,53.711,53.711,0,0,0,16.717,11.4c4.278,1.925,8.593,3.771,12.725,6.007a81.451,81.451,0,0,1,17.339,12.135,45.424,45.424,0,0,1,9.7,12.632,31.517,31.517,0,0,1,3.5,13.417A25,25,0,0,1,549.359,431.035Z" transform="translate(-407.866 -289.332)"/><path class="b" d="M902.123,296.173a2.554,2.554,0,0,1-.289-.24c-1.633-1.731-3.174-3.552-4.915-5.169a31.559,31.559,0,0,1-8-11.781c-1.33-3.413-2.707-6.811-4.2-10.154a58.121,58.121,0,0,0-14.377-19.852,37.181,37.181,0,0,0-18.529-9.135,38.693,38.693,0,0,0-11.432-.345c-2.07.25-4.12.674-6.183.981-1.065.159-2.14.237-3.209.351l-.092-.206c.268-.3.525-.61.805-.9a27.937,27.937,0,0,1,11.08-6.794,37.737,37.737,0,0,1,17.313-1.731c13.214,1.692,23.094,8.6,30.28,19.621a62.206,62.206,0,0,1,6.735,14.156,7.921,7.921,0,0,1,.316,1.89c.289,3.558.512,7.121.847,10.676a57.373,57.373,0,0,0,2.02,12.149c.476,1.5,1.1,2.948,1.692,4.406A2.866,2.866,0,0,1,902.123,296.173Z" transform="translate(-725.65 -230.88)"/><path class="b" d="M1344.926,469.191a3.818,3.818,0,0,1-.371.3,36.191,36.191,0,0,1-12.2,4.824,14.545,14.545,0,0,1-7.569-.749,18.555,18.555,0,0,1-8.9-6.647,28.471,28.471,0,0,1-4.824-10.942,68.909,68.909,0,0,1-1.335-9.434c-.447-5.217-.809-10.439-1.209-15.662-.053-.669-.125-1.337-.193-2.066.3-.1.561-.211.832-.277,6.722-1.653,12.044.729,16.353,5.8a22.3,22.3,0,0,1,4.438,9.424,41.052,41.052,0,0,1,1.01,7.434,29.537,29.537,0,0,0,1.128,6.925,14.383,14.383,0,0,0,9.059,9.818C1342.354,468.416,1343.62,468.765,1344.926,469.191Z" transform="translate(-1134.2 -399.588)"/><path class="b" d="M866.688,1394.723c-.483.163-.977.288-1.57.472,2.243,3.6,4.442,7.126,6.719,10.777-.463.029-.742.059-1.023.059-2.862,0-5.722-.012-8.584.013a1.353,1.353,0,0,1-1.333-.694c-3.174-5.14-6.39-10.258-9.59-15.382-.131-.211-.232-.433-.4-.749.371-.022.645-.05.919-.05H860.7c.32,0,.645.011.964-.02a1.684,1.684,0,0,0,1.731-1.708,19.829,19.829,0,0,0,0-2.885,1.7,1.7,0,0,0-1.731-1.721,8.3,8.3,0,0,0-.964-.022c-6.492,0-12.984-.013-19.485.016a1.586,1.586,0,0,1-1.558-.821c-.965-1.557-2.02-3.06-3.03-4.585-.159-.237-.3-.488-.511-.828a7.053,7.053,0,0,1,.791-.094H861.6a15.831,15.831,0,0,1,4.946.707,7.124,7.124,0,0,1,5.286,6.925c.048,1.251.051,2.509,0,3.76A7.067,7.067,0,0,1,866.688,1394.723Z" transform="translate(-730.125 -1211.226)"/><path class="b" d="M1119.774,1388.694a6.7,6.7,0,0,1-4.134,5.626,13.2,13.2,0,0,1-5.349,1.1c-3.666.058-7.332.025-11,.025a3.707,3.707,0,0,1-.4-.058c-.134-2.049-.042-4.109-.063-6.26h9.952c.289,0,.577.009.866-.013a1.772,1.772,0,0,0,1.832-1.841,24.107,24.107,0,0,0,0-2.7,1.734,1.734,0,0,0-1.692-1.773,8.09,8.09,0,0,0-1.057-.03c-6.433,0-12.865-.022-19.3.022a1.9,1.9,0,0,1-1.841-1.01c-.909-1.479-1.912-2.9-2.874-4.344-.172-.26-.332-.522-.577-.919.476-.026.783-.058,1.091-.058,8.04,0,16.08-.026,24.119.02a20.529,20.529,0,0,1,4.395.488c3.947.892,5.94,3.272,6.166,7.312A26.389,26.389,0,0,1,1119.774,1388.694Z" transform="translate(-942.363 -1211.183)"/><path class="b" d="M1480.771,1365.87c-.025,3.152-.013,6.3-.017,9.454a2.894,2.894,0,0,1-.089.421c-.329-.312-.564-.525-.788-.749q-15.04-15.04-30.089-30.072a2.024,2.024,0,0,1-.678-1.587c.035-2.829.016-5.658.016-8.487v-1.01c.31.252.509.388.677.555q15.215,15.208,30.425,30.418A1.394,1.394,0,0,1,1480.771,1365.87Z" transform="translate(-1254.677 -1174.721)"/><path class="b" d="M150.277,1376.484v6.2c-.351.016-.721.046-1.086.046H129.8a6.462,6.462,0,0,0-1.154.066,1.576,1.576,0,0,0-1.469,1.541,19.3,19.3,0,0,0-.03,2.981,1.724,1.724,0,0,0,1.9,1.759c1.06.038,2.122.013,3.183.016h1.154v6.16c-.089.062-.144.127-.193.127a37.052,37.052,0,0,1-7.691-.314,13.006,13.006,0,0,1-1.676-.433,6.848,6.848,0,0,1-4.979-5.814,19.455,19.455,0,0,1,.063-6.149,6.705,6.705,0,0,1,4.167-5.178,14.187,14.187,0,0,1,5.745-1.06c6.915-.03,13.827-.013,20.74-.011C149.781,1376.422,150,1376.459,150.277,1376.484Z" transform="translate(-116.147 -1211.155)"/><path class="b" d="M386.062,1376.542v6.234h-8.4c-1.453.055-2.1.7-2.109,2.164-.016,3.216,0,6.432,0,9.645v2.8c.013,1.5.332,1.906,1.782,2.309.089.026.177.071.281.112v6.111c-.678,0-1.31.033-1.938-.009a12.291,12.291,0,0,1-4.2-.984,6.814,6.814,0,0,1-4.151-5.194,11.951,11.951,0,0,1-.2-2.2q-.026-6.269,0-12.537a12.15,12.15,0,0,1,.24-2.392,6.781,6.781,0,0,1,4.184-5.064,14.062,14.062,0,0,1,5.459-1.04c2.859-.048,5.722-.017,8.583-.017a3.938,3.938,0,0,1,.473.068Z" transform="translate(-328.78 -1211.195)"/><path class="b" d="M634.872,1382.73h-7.967c-2.049,0-2.6.542-2.6,2.555v11.575c0,2.076.144,2.274,2.066,2.909v6.083a5.975,5.975,0,0,1-2.033,0,12.169,12.169,0,0,1-4.194-1.01,6.8,6.8,0,0,1-4.063-5.161,11.759,11.759,0,0,1-.2-2.2q-.03-6.268,0-12.537a11.991,11.991,0,0,1,.241-2.393,6.782,6.782,0,0,1,4.175-5.065,14.083,14.083,0,0,1,5.456-1.04c2.862-.048,5.722-.017,8.584-.017a4.118,4.118,0,0,1,.48.072C634.928,1378.531,634.845,1380.566,634.872,1382.73Z" transform="translate(-541.647 -1211.152)"/><path class="b" d="M151.092,1473.711a10.174,10.174,0,0,1-.231,1.427,6.751,6.751,0,0,1-4.107,4.9,12.244,12.244,0,0,1-4.012.959c-.959.072-1.925.1-2.885.1q-9.548.013-19.1,0H119.58v-6.3H139.9a8.282,8.282,0,0,0,1.443-.121,1.547,1.547,0,0,0,1.287-1.275,3.485,3.485,0,0,0,.079-.955,1.77,1.77,0,0,0-1.887-1.875c-1.125-.037-2.252-.013-3.376-.016h-1.01v-6.182c.108-.059.163-.113.218-.114a37.863,37.863,0,0,1,7.877.336C149.268,1465.574,151.491,1468.7,151.092,1473.711Z" transform="translate(-116.962 -1286.291)"/><path class="b" d="M722.659,1397.359a14.558,14.558,0,0,1-.222,2.585,6.648,6.648,0,0,1-3.792,4.924,10.115,10.115,0,0,1-4.168,1.1c-3.463.1-6.941.085-10.411.114a.731.731,0,0,1-.186-.048,32.173,32.173,0,0,1-.053-6.225h8.144c1.613-.048,2.265-.622,2.278-2.21q.049-6.266,0-12.536c-.012-1.443-.366-1.786-2.02-2.278v-6.2c2.858.059,5.58.336,7.873,2.164a6.973,6.973,0,0,1,2.522,5.127c.063.733.046,1.477.046,2.215C722.672,1389.837,722.684,1393.6,722.659,1397.359Z" transform="translate(-616.813 -1211.294)"/><path class="b" d="M1791.481,1387.105h-8.915l-12.367-24.519q2.127-4.106,4.26-8.216C1774.974,1354.885,1791.145,1385.994,1791.481,1387.105Z" transform="translate(-1529.444 -1192.289)"/><path class="b" d="M1369.92,1376.86v29.307a56.5,56.5,0,0,1-8.174.108c-.209-.656-.3-27.7-.085-29.416Z" transform="translate(-1179.742 -1211.534)"/><path class="b" d="M872.967,1435.44v20.837a50.661,50.661,0,0,1-8.235.1c-.182-.682-.231-19.735-.039-20.934Z" transform="translate(-754.471 -1261.663)"/><path class="b" d="M1121.67,1435.39v20.863a51.554,51.554,0,0,1-8.3.043V1435.39Z" transform="translate(-967.376 -1261.62)"/><path class="b" d="M1697.667,1437.985c-2.13,4.142-4.231,8.3-6.348,12.448a3.383,3.383,0,0,1-.222.336h-9l11.4-22c.3.577.516,1.01.731,1.432,1.117,2.206,2.228,4.416,3.351,6.621A1.105,1.105,0,0,1,1697.667,1437.985Z" transform="translate(-1454.054 -1255.955)"/><path class="b" d="M474.19,1497.868c.022,5.165-2.96,7.382-6.9,8.086a23.186,23.186,0,0,1-3.644.3c-2.506.046-5.013.017-7.519.016-.253,0-.5-.035-.847-.059v-6.185c.345-.016.682-.046,1.02-.046h6.846c2.079,0,2.626-.551,2.64-2.634.009-1.187,0-2.373,0-3.7,2.792-.011,5.51,0,8.306,0a6.757,6.757,0,0,1,.092.757C474.2,1495.554,474.185,1496.711,474.19,1497.868Z" transform="translate(-404.23 -1311.47)"/><path class="b" d="M1458.018,1436.693c-.022,4.3-.013,8.6-.017,12.909a2.962,2.962,0,0,1-.066.433h-8.3v-22.023l.182-.092c.534.551,1.062,1.107,1.6,1.649l6.059,6.06A1.4,1.4,0,0,1,1458.018,1436.693Z" transform="translate(-1255.123 -1255.227)"/><path class="b" d="M1618.507,1377.334v22.123c-.31-.278-.522-.454-.721-.649l-7.033-7.021a1.629,1.629,0,0,1-.6-1.241c.025-4.213.013-8.427.017-12.638,0-.159.03-.316.058-.577Z" transform="translate(-1392.485 -1211.936)"/><path class="b" d="M524.482,1389.477H516.14v-1.17c0-.9.013-1.8,0-2.7-.03-1.654-.345-2.042-2.02-2.5v-6.159c.534,0,1.066-.018,1.6,0a12.927,12.927,0,0,1,3.949.779,6.844,6.844,0,0,1,4.8,6.157C524.616,1385.71,524.482,1387.55,524.482,1389.477Z" transform="translate(-454.581 -1211.608)"/><path class="a" d="M557.976,1637.88c-.405,2.994-.8,5.9-1.192,8.809-.568.274-.721,0-.783-.46-.19-1.365-.4-2.731-.6-4.1a5.37,5.37,0,0,0-.366-1.423q-.3,1.937-.59,3.872c-.085.577-.165,1.144-.241,1.717-.051.374-.195.615-.757.433-.392-2.851-.792-5.762-1.209-8.8h.791q.346,2.755.69,5.51l.144.039c.062-.241.144-.479.182-.721q.313-2.094.61-4.193c.058-.4.1-.8.8-.593.277,1.8.56,3.644.843,5.493h.2c.228-1.809.456-3.617.694-5.482C557.406,1637.948,557.611,1637.925,557.976,1637.88Z" transform="translate(-487.201 -1434.896)"/><path class="a" d="M1909.442,1642.43v4.465c-.544.241-.649-.068-.763-.388q-.684-1.9-1.381-3.8c-.2-.551-.413-1.1-.622-1.65l-.2.043v5.813c-.433.144-.713.172-.753-.316v-8.345c.506-.333.662-.033.795.333q.553,1.538,1.112,3.076a12.583,12.583,0,0,0,1.034,2.308v-5.755c.6-.222.792-.043.788.472C1909.434,1639.925,1909.442,1641.179,1909.442,1642.43Z" transform="translate(-1645.412 -1435.093)"/><path class="a" d="M799.055,1646.724c-.411.16-.753.218-.913-.244-.514-1.482-1.01-2.965-1.567-4.581l1.469-.125V1638.6h-1.906v8.187h-.687c-.25-.2-.274-7.841-.039-8.887h2.867a.566.566,0,0,1,.622.6c.017,1.125.012,2.249,0,3.376a.6.6,0,0,1-.531.594c-.214.051-.433.077-.742.13C798.115,1644.006,798.582,1645.359,799.055,1646.724Z" transform="translate(-695.151 -1434.913)"/><path class="a" d="M221.38,1638.864c-.012-.866-.131-.98-1.023-1-.514-.009-1.027,0-1.541,0-1.128,0-1.225.088-1.229,1.19-.009,1.929,0,3.856,0,5.787,0,.42,0,.837.016,1.254a.656.656,0,0,0,.733.707c.674,0,1.35.012,2.02,0,.892-.013,1.01-.123,1.023-.994.013-1.125,0-2.252,0-3.376C221.383,1641.244,221.395,1640.054,221.38,1638.864Zm-.856,7.214h-1.948a47.233,47.233,0,0,1-.066-7.515h2.02Z" transform="translate(-200.826 -1434.882)"/><path class="a" d="M1239.3,1642.408v-3.279c0-1.154-.075-1.222-1.176-1.229h-1.544c-.939.013-1.062.121-1.073,1.053-.016,1.479,0,2.956,0,4.436,0,.77-.009,1.544,0,2.308.013,1.019.117,1.121,1.091,1.135.577,0,1.154.011,1.731,0,.821-.017.952-.144.964-.955C1239.314,1644.724,1239.3,1643.566,1239.3,1642.408Zm-.792,3.721H1236.4V1638.6h2.088C1238.531,1641.088,1238.5,1643.579,1238.509,1646.129Z" transform="translate(-1071.887 -1434.913)"/><path class="a" d="M1791.724,1638.822c-.012-.814-.144-.933-.968-.952-.517-.011-1.03,0-1.544,0-1.2,0-1.272.068-1.28,1.236-.009,1.319,0,2.636,0,3.956,0,.964-.02,1.929.011,2.893.02.69.185.832.879.851.61.017,1.22.012,1.832,0,.955-.013,1.062-.112,1.073-1.043.011-1.124,0-2.249,0-3.376C1791.728,1641.2,1791.738,1640.012,1791.724,1638.822Zm-.854,7.291h-1.937a46.564,46.564,0,0,1-.076-7.531h2.02Z" transform="translate(-1544.613 -1434.883)"/><path class="a" d="M1466.655,1645.687c0,1.137-.094,1.226-1.19,1.236-.547,0-1.094.013-1.64,0-.742-.022-.866-.16-.915-.919-.012-.16,0-.323,0-.483v-7.465l.8-.035v8.19h2.094a25.609,25.609,0,0,0,.046-2.627c.011-.931,0-1.864,0-2.8V1638l.742.055c.02.288.053.54.053.791Q1466.659,1642.263,1466.655,1645.687Z" transform="translate(-1266.483 -1434.999)"/><path class="a" d="M105.218,1644.675c-.033.48.013.965-.016,1.443-.035.577-.177.721-.775.745-.674.025-1.348,0-2.02,0a.636.636,0,0,1-.708-.721v-2.079l.773-.079v2.19h1.864c.127-1.086.32-2.143-.632-3.018-.4-.365-.648-.9-1.058-1.245-1.058-.9-1-2.07-.948-3.266a.647.647,0,0,1,.729-.7h2.121a.6.6,0,0,1,.658.665c.012.636,0,1.272,0,2.02-.32-.016-.5-.025-.74-.033-.017-.367-.038-.681-.046-.994v-.935h-1.868a2.794,2.794,0,0,0,.682,2.75c.538.5.929,1.154,1.427,1.692A2,2,0,0,1,105.218,1644.675Z" transform="translate(-101.64 -1434.948)"/><path class="a" d="M1123.227,1644.5c-.03.48.012.964-.013,1.443-.03.61-.163.762-.733.788-.672.029-1.348,0-2.02,0-.456,0-.744-.193-.75-.677-.009-.7,0-1.4,0-2.154h.771v2.114h1.875c.068-.993.353-2-.548-2.9-.593-.577-1.056-1.3-1.607-1.92a1.972,1.972,0,0,1-.5-1.4c.02-2.2-.144-2,1.948-2.007,1.587,0,1.587,0,1.587,1.587v1.066h-.752c-.033-.644-.066-1.268-.1-1.949h-1.8a2.7,2.7,0,0,0,.577,2.657c.577.556,1.01,1.245,1.55,1.841A1.926,1.926,0,0,1,1123.227,1644.5Z" transform="translate(-972.79 -1434.817)"/><path class="a" d="M681.109,1638l-.814.053c-.529,2.952-1.047,5.846-1.575,8.8l.729.063c.144-.669.26-1.258.387-1.875h1.71c.127.619.245,1.208.378,1.859l.759-.071C682.151,1643.853,681.634,1640.953,681.109,1638Zm-1.176,6.281c.228-1.456.447-2.859.669-4.263l.189.03c.218,1.385.433,2.77.662,4.231Z" transform="translate(-595.434 -1434.999)"/><path class="a" d="M914.264,1646.832h-2.379a59.77,59.77,0,0,1-.048-8.928c.808,0,1.637-.011,2.463.013.113,0,.219.172.329.261-.114.118-.222.332-.345.34-.535.037-1.078.017-1.681.017v3.365l1.776.092c.1.288.144.551-.228.577-.476.039-.956.009-1.558.009-.112,1.2-.037,2.333-.05,3.558l2.039.1C914.751,1646.628,914.662,1646.827,914.264,1646.832Z" transform="translate(-794.795 -1434.914)"/><path class="a" d="M336.54,1638.789v3.36l1.76.094c.1.3.144.553-.232.577-.476.038-.955.009-1.523.009-.19,1.427.026,2.8-.144,4.255l-.7-.071v-8.822h2.75c.126.336.127.577-.312.59C337.627,1638.8,337.118,1638.789,336.54,1638.789Z" transform="translate(-301.902 -1435.161)"/><path class="a" d="M445.326,1638.29c-.016.474-.016.474-1.291.721v8.094h-.805v-8.089c-.511-.114-.935-.2-1.347-.316-.033-.009,0-.231,0-.41Z" transform="translate(-392.752 -1435.247)"/><path class="a" d="M1580.536,1638.237c-.017.551-.017.551-1.232.649-.123,2.685,0,5.391-.071,8.158l-.783.055v-8.149c-1.3-.228-1.3-.228-1.33-.721Z" transform="translate(-1364.22 -1435.196)"/><path class="a" d="M1357.2,1646.881a27.572,27.572,0,0,1-2.777.026v-8.845l.691-.062v8.154c.8.114,1.443.206,2.083.315A2.8,2.8,0,0,1,1357.2,1646.881Z" transform="translate(-1173.649 -1434.999)"/><path class="a" d="M1690.907,1637.81v8.881h-.707v-8.76Z" transform="translate(-1460.986 -1434.836)"/></g></svg>