<svg xmlns="http://www.w3.org/2000/svg" xmlns:xlink="http://www.w3.org/1999/xlink" width="335" height="134.097" viewBox="0 0 335 134.097"><defs><style>.a{fill:none;}.b{clip-path:url(#a);}.c{fill:url(#b);}</style><clipPath id="a"><path class="a" d="M572.782,924.245l10,6.871H555.908Zm-55.41-3.813L529.6,931.109h-32Zm-53.294,2.662H488.52l28.861-15.577,17.839,15.577h8.632l28.939-11.778,15.418,10.6v6.867L573.4,918.621l-30.534,12.4h-5.784l-19.038-16.627L487.23,931.018H464.078Zm0-12.922H488.52l28.861-15.577,17.839,15.577h8.632l28.939-11.778L588.2,909.007v6.867L573.391,905.7,542.867,918.12h-5.784l-19.038-16.627L487.23,918.12H464.078Zm0-12.922H488.52l28.861-15.577,17.839,15.577h8.632l28.939-11.778,15.418,10.6v6.871l-14.818-10.186-30.524,12.421h-5.784l-19.038-16.627L487.23,905.174H464.078Zm0-12.922H488.52l28.861-15.577,17.839,15.577h8.632l28.939-11.778,15.418,10.6v6.867L573.4,879.837l-30.524,12.421h-5.794l-19.038-16.627L487.23,892.258H464.078Zm0-25.841h37.866l-14.7,7.934H464.078Zm0,12.922H488.52l28.861-15.577,17.839,15.577h8.632l28.939-11.778,15.418,10.6v6.867L573.4,866.919,542.877,879.34h-5.794l-19.034-16.623-30.815,16.627H464.078ZM528,858.487h15.841L572.782,846.7l15.418,10.6v6.878L573.391,854l-30.524,12.421h-5.784Zm-63.923-12.922h79.768l28.939-11.778,15.418,10.6v6.867l-14.812-10.172L542.867,853.5H522.288l-4.24-3.7-6.864,3.7H464.078Zm0-12.922h79.768l28.939-11.778,15.414,10.6v6.867l-14.808-10.176-30.524,12.421H464.078Zm0-12.922h79.768l28.939-11.778,15.418,10.6v6.867L573.395,815.23,542.87,827.651H464.078Zm0-12.736H561.9l-19.034,7.748H464.078Zm116.116,0H588.2V812.5ZM459.09,936.1h134.1V802H459.09Z" transform="translate(-459.09 -802)"/></clipPath><linearGradient id="b" x1="-0.673" y1="2.286" x2="-0.672" y2="2.286" gradientUnits="objectBoundingBox"><stop offset="0" stop-color="#ffd3ad"/><stop offset="0.08" stop-color="#ffd3ad"/><stop offset="0.43" stop-color="#e8bd98"/><stop offset="0.87" stop-color="#c59d79"/><stop offset="1" stop-color="#c59d79"/></linearGradient></defs><g transform="translate(-708.447 -3102.633)"><g transform="translate(884.586 3119.926)"><path d="M991.685,875.63h25.485a9.4,9.4,0,0,1,5.5,1.307,6.263,6.263,0,0,1,2.414,3.386,16.471,16.471,0,0,1,.654,4.331h5.418v4.51H982.44l2.709-4.51h36.084a5.817,5.817,0,0,0-.745-3.2q-.792-1.314-3.319-1.314H991.685Zm-2.032,11.276V854.062l4.511-.992v33.839Z" transform="translate(-981.356 -853.07)"/><path d="M1115.9,974.509a2.618,2.618,0,1,1,.769,1.849,2.523,2.523,0,0,1-.769-1.849m7.789,0a2.618,2.618,0,1,1,.769,1.849,2.519,2.519,0,0,1-.769-1.849" transform="translate(-1069.622 -931.652)"/><path d="M869.782,315.67v9.021H875.2V329.2H859.86v-4.511h5.411v-8.029Z" transform="translate(-811.866 -293.11)"/><path d="M1169.047,875.63h25.485a9.407,9.407,0,0,1,5.5,1.307,6.269,6.269,0,0,1,2.414,3.386,16.5,16.5,0,0,1,.654,4.331h5.418v4.51H1160.93v-4.514h37.662a5.826,5.826,0,0,0-.745-3.2q-.789-1.307-3.315-1.307h-25.485Zm-2.032,11.276V854.062l4.511-.992v33.839Z" transform="translate(-1099.405 -853.07)"/><path d="M1309.719,887.886a2.618,2.618,0,1,1,.765,1.849,2.523,2.523,0,0,1-.765-1.849" transform="translate(-1197.809 -874.364)"/><path d="M1299.747,916.341h-2.032l-2.255-4.511h7.531l12.133,21.74-3.745,3.474q-2.868-5.178-5.814-10.352t-5.818-10.352m-4.063,7.172h18.855v4.511h-18.855Z" transform="translate(-1188.379 -891.932)"/><path d="M1341.41,890.189a2.618,2.618,0,1,1,.769,1.849,2.52,2.52,0,0,1-.769-1.849m7.788,0a2.618,2.618,0,1,1,.765,1.849,2.52,2.52,0,0,1-.765-1.849" transform="translate(-1218.768 -875.886)"/><path d="M1095.292,315.67v9.021h5.415V329.2H1085.37v-4.511h5.411v-8.029Z" transform="translate(-961.012 -293.11)"/><path d="M1396.342,853.08v35.048q0,.857-1.8,1.036h-8.127v-4.507h5.418V854.069Z" transform="translate(-1248.53 -853.077)"/><path d="M1426.91,853.08v32.481q0,1.581,1.714,1.49a7.138,7.138,0,0,0,2.57-.494,3.386,3.386,0,0,1-1.737,2.032,6.29,6.29,0,0,1-3.021.789,4.475,4.475,0,0,1-2.841-.88,3.435,3.435,0,0,1-1.2-2.932v-31.5Z" transform="translate(-1272.333 -853.077)"/><path d="M989.1,1138.086a2.618,2.618,0,1,1,.765,1.849,2.52,2.52,0,0,1-.765-1.849m7.788,0a2.618,2.618,0,1,1,.765,1.849,2.52,2.52,0,0,1-.765-1.849" transform="translate(-985.761 -1039.839)"/><path d="M997.509,1060.2H979.24l3.789-6.316a2.949,2.949,0,0,0,1.355,1.355,3.85,3.85,0,0,0,1.713.45h8.8Zm-1.669,0-10.42-18.178q-2.8-4.826-1.4-7.937a12.8,12.8,0,0,1,4.152-5.141,16.9,16.9,0,0,0,2.164-1.849,3.655,3.655,0,0,0,.765-2.57l15.293,26.657h-5.188l-10.691-18.493a3.966,3.966,0,0,0-2.052,2.909,6.082,6.082,0,0,0,.88,4.216l11.639,20.389Zm13.846-9.021h-7.037v-4.51h7.037Z" transform="translate(-979.24 -966.469)"/><rect width="15.337" height="4.511" transform="translate(28.645 80.205)"/><rect width="15.337" height="4.511" transform="translate(42.176 80.205)"/><path d="M1153.652,996.68v35.048q0,.857-1.8,1.04h-8.127v-4.51h5.418V997.672Z" transform="translate(-1088.022 -948.049)"/><path d="M1184.184,996.68v31.574h5.418v4.511h-8.127q-1.8-.18-1.8-1.04V997.672Z" transform="translate(-1111.799 -948.049)"/><rect width="20.839" height="4.511" transform="translate(76.005 80.205)"/><rect width="15.337" height="4.511" transform="translate(95.04 80.205)"/><rect width="15.337" height="4.511" transform="translate(108.572 80.205)"/><path d="M1347.02,1066.6,1337,1055.69l2.977-4.1,10.69,11.639Zm-9.068-3.112h17.592V1068h-17.592Zm7.893,2.255v-14.795l4.511-.992v15.787Z" transform="translate(-1215.852 -983.287)"/><path d="M1396.342,996.68v35.048q0,.857-1.8,1.04h-8.127v-4.51h5.418V997.672Z" transform="translate(-1248.53 -948.049)"/><path d="M1426.91,996.68v32.478q0,1.581,1.714,1.49a7.16,7.16,0,0,0,2.57-.494,3.385,3.385,0,0,1-1.737,2.032,6.29,6.29,0,0,1-3.021.789,4.474,4.474,0,0,1-2.841-.881,3.435,3.435,0,0,1-1.2-2.932V997.669Z" transform="translate(-1272.333 -948.049)"/></g><g class="b" transform="translate(708.447 3102.633)"><rect class="c" width="189.64" height="189.64" transform="translate(-67.042 66.153) rotate(-44.62)"/></g></g></svg>