<svg xmlns="http://www.w3.org/2000/svg" xmlns:xlink="http://www.w3.org/1999/xlink" width="194.682" height="120.789" viewBox="0 0 194.682 120.789"><defs><style>.a{fill:url(#a);}.b{fill:#fff;}</style><linearGradient id="a" y1="0.5" x2="1" y2="0.5" gradientUnits="objectBoundingBox"><stop offset="0.08" stop-color="#ffd3ad"/><stop offset="0.426" stop-color="#e8bd98"/><stop offset="0.871" stop-color="#c59d79"/></linearGradient></defs><g transform="translate(65.994 0)"><path class="a" d="M946.431,724.234H939.41a22.434,22.434,0,0,1,6.508-14.023l-2.775-2.776a26.263,26.263,0,0,0-7.682,16.8H925.4a26.266,26.266,0,0,0-7.682-16.8l-2.775,2.776a22.368,22.368,0,0,1,6.52,14.023h-6.372v3.925h6.364a22.367,22.367,0,0,1-6.511,13.924l2.775,2.775a26.264,26.264,0,0,0,7.675-16.7h10.078a26.263,26.263,0,0,0,7.675,16.7l2.775-2.775a22.435,22.435,0,0,1-6.5-13.924h7.012Z" transform="translate(-903.172 -698.56)"/><path class="a" d="M906.84,714.887H851.666V659.713H906.84Zm-49.567-5.607h43.96V665.32h-43.96Z" transform="translate(-851.666 -659.713)"/></g><g transform="translate(0.723 73.813)"><g transform="translate(0)"><path class="b" d="M512.445,1066.546q-.111-.3-.19-.569c-.053-.179-.1-.337-.142-.475a4.511,4.511,0,0,0-.142-.443q-.048.206-.111.459-.063.221-.142.506t-.19.6l-2.8,8.382h-3.242l-4.776-16.193h3.495l2.736,9.647q.174.6.34,1.289t.308,1.289q.174.7.332,1.376.237-.76.474-1.487.205-.617.427-1.3t.4-1.186l2.546-7.606h1.9l2.641,7.606q.174.506.388,1.186t.4,1.3q.221.728.443,1.487.222-.76.411-1.487.174-.617.356-1.3t.324-1.186l2.625-9.631h1.977l-4.634,16.193h-3.242Z" transform="translate(-500.711 -1058.402)"/><path class="b" d="M631.805,1073.207l-1.9-5.457-6.089.08-1.977,5.377h-2.088l6.421-16.052,3.194-.553,5.978,16.6Zm-2.42-6.99-2.435-6.99-2.562,6.99Z" transform="translate(-597.615 -1056.602)"/><path class="b" d="M713.97,1075.006v-16.193h3.305V1073.3h6.152l-.158,1.708Z" transform="translate(-674.308 -1058.402)"/><path class="b" d="M808.685,1067.71h-1.107v6.674h-3.305v-16.162q.49-.031,1.068-.063t1.186-.055q.609-.023,1.234-.039t1.194-.016a7.7,7.7,0,0,1,4.46,1.075,3.827,3.827,0,0,1,1.518,3.353,5.455,5.455,0,0,1-.261,1.771,4.677,4.677,0,0,1-.688,1.321,4.241,4.241,0,0,1-.98.941,7.3,7.3,0,0,1-1.154.648q.727,1.25,1.384,2.356a18.214,18.214,0,0,0,1.3,1.937,6.478,6.478,0,0,0,1.328,1.313,2.469,2.469,0,0,0,1.455.482h.111v1.028a6.045,6.045,0,0,1-.9.206,7.424,7.424,0,0,1-1.139.079,8.8,8.8,0,0,1-1.1-.063,3.575,3.575,0,0,1-.933-.245,3.387,3.387,0,0,1-.854-.53,5.873,5.873,0,0,1-.862-.917,15.021,15.021,0,0,1-.949-1.4q-.506-.83-1.107-1.985Zm-.538-1.6a5.3,5.3,0,0,0,1.336-.166,3.148,3.148,0,0,0,1-.419,2.749,2.749,0,0,0,.38-.308,1.669,1.669,0,0,0,.34-.506,3.363,3.363,0,0,0,.237-.815,7.287,7.287,0,0,0,.087-1.233,4.28,4.28,0,0,0-.2-1.392,2.1,2.1,0,0,0-.585-.909,2.335,2.335,0,0,0-.957-.491,5.262,5.262,0,0,0-1.328-.15c-.116,0-.259.006-.427.016s-.322.027-.459.048v6.325Z" transform="translate(-747.816 -1057.779)"/><path class="b" d="M893.7,1075.006h-9.757v-16.193h9.409l-.158,1.645-5.946.079v5.266l5.6.063-.158,1.5-5.44.127v5.788l6.61.127Z" transform="translate(-812.673 -1058.402)"/><path class="b" d="M953.563,1073.207l-1.9-5.457-6.088.08-1.977,5.377h-2.087l6.42-16.052,3.195-.553,5.978,16.6Zm-2.42-6.99-2.435-6.99-2.562,6.99Z" transform="translate(-859.533 -1056.602)"/><path class="b" d="M1035.729,1075.006v-16.193h3.305V1073.3h6.151l-.158,1.708Z" transform="translate(-936.226 -1058.402)"/><path class="b" d="M1135.788,1075.006h-9.757v-16.193h9.409l-.158,1.645-5.946.079v5.266l5.6.063-.158,1.5-5.44.127v5.788l6.61.127Z" transform="translate(-1009.734 -1058.402)"/><path class="b" d="M1196.967,1069.431a3.873,3.873,0,0,1-.45,1.771,5.215,5.215,0,0,1-1.281,1.6,6.663,6.663,0,0,1-2,1.154,7.379,7.379,0,0,1-2.625.443,12.2,12.2,0,0,1-1.447-.079,8.888,8.888,0,0,1-1.242-.237,10.4,10.4,0,0,1-1.123-.372q-.538-.214-1.075-.482l.806-2.4a6.012,6.012,0,0,0,.941.5q.593.26,1.266.482a13.411,13.411,0,0,0,1.368.371,6.031,6.031,0,0,0,1.265.15,5.254,5.254,0,0,0,1.977-.285,1.231,1.231,0,0,0,.593-.711,3.854,3.854,0,0,0,.229-1.455,1.614,1.614,0,0,0-.34-1.052,3.148,3.148,0,0,0-.893-.736,7.909,7.909,0,0,0-1.265-.569q-.711-.253-1.447-.538a14.24,14.24,0,0,1-1.447-.656,5.255,5.255,0,0,1-1.265-.917,4.215,4.215,0,0,1-.893-1.312,4.571,4.571,0,0,1-.34-1.858,3.421,3.421,0,0,1,.387-1.5,4.6,4.6,0,0,1,1.13-1.439,6.214,6.214,0,0,1,1.827-1.075,6.707,6.707,0,0,1,2.475-.427,19.937,19.937,0,0,1,2.142.111q1.021.111,1.985.285l-.506,2.4q-.459-.158-1.02-.3t-1.146-.245q-.586-.1-1.139-.166a8.784,8.784,0,0,0-.98-.063,8.683,8.683,0,0,0-.957.055,2.2,2.2,0,0,0-.814.229,1.01,1.01,0,0,0-.459.6,3.271,3.271,0,0,0-.142,1.028,1.556,1.556,0,0,0,.34,1.028,2.981,2.981,0,0,0,.894.712,8.861,8.861,0,0,0,1.265.554q.712.253,1.455.546a15.161,15.161,0,0,1,1.455.664,5.03,5.03,0,0,1,1.265.933,4.353,4.353,0,0,1,.894,1.352A4.839,4.839,0,0,1,1196.967,1069.431Z" transform="translate(-1058.325 -1057.571)"/><path class="b" d="M1256.433,1075.006v-14.47l-4.981-.079.158-1.645h13.11l-.158,1.6-4.823.126v14.47Z" transform="translate(-1111.829 -1058.402)"/><path class="b" d="M1329.487,1073.207l-1.9-5.457-6.088.08-1.977,5.377h-2.087l6.421-16.052,3.195-.553,5.978,16.6Zm-2.42-6.99-2.435-6.99-2.562,6.99Z" transform="translate(-1165.541 -1056.602)"/><path class="b" d="M1400.9,1075.006v-14.47l-4.981-.079.158-1.645h13.11l-.158,1.6-4.823.126v14.47Z" transform="translate(-1229.429 -1058.402)"/><path class="b" d="M1488.5,1075.006h-9.757v-16.193h9.41l-.158,1.645-5.946.079v5.266l5.6.063-.158,1.5-5.44.127v5.788l6.611.127Z" transform="translate(-1296.847 -1058.402)"/></g></g><g transform="translate(0 99.556)"><path class="b" d="M505.564,1228.9h-8.742v-9.992h2.5v8.743h3.747v-8.743h2.5Zm-7.242-13.739h2.5v1.873h-2.5Zm3.319,0h2.5v1.873h-2.5Z" transform="translate(-496.822 -1211.419)"/><path class="b" d="M551.839,1212.505V1195.02H554.4v17.485Z" transform="translate(-541.607 -1195.02)"/><path class="b" d="M570.116,1259.984H566.15v-1.249h1.468v-9.992h2.5Z" transform="translate(-553.256 -1238.751)"/><path class="b" d="M593.777,1212.505V1195.02h2.564v16.236h1.1v1.249Z" transform="translate(-575.745 -1195.02)"/><path class="b" d="M613.451,1222.911v-1.249h7.713v-1.873H616.2v-8.118h7.461v9.991h1.315v1.249Zm3.615-15.108h2.5v1.873h-2.5Zm4.1,5.116H618.7v5.62h2.465Zm-.767-5.116h2.5v1.873h-2.5Z" transform="translate(-591.76 -1205.426)"/><path class="b" d="M684.209,1283.511l-8.786.011v-1.249l8.786-.011Z" transform="translate(-642.207 -1266.037)"/><path class="b" d="M731.453,1283.511l-8.786.011v-1.249l8.786-.011Z" transform="translate(-680.664 -1266.037)"/><path class="b" d="M778.7,1283.511l-8.786.011v-1.249l8.786-.011Z" transform="translate(-719.121 -1266.037)"/><path class="b" d="M817.154,1239.837v-1.249H819.7V1228.6h7.362v7h-2.5v-5.751h-2.378v8.742h6.694v1.249Z" transform="translate(-757.579 -1222.352)"/><path class="b" d="M888.972,1283.511l-8.787.011v-1.249l8.787-.011Z" transform="translate(-808.887 -1266.037)"/><path class="b" d="M936.216,1283.511l-8.786.011v-1.249l8.786-.011Z" transform="translate(-847.345 -1266.037)"/><path class="b" d="M983.46,1283.511l-8.786.011v-1.249l8.786-.011Z" transform="translate(-885.803 -1266.037)"/><path class="b" d="M1030.7,1283.511l-8.786.011v-1.249l8.786-.011Z" transform="translate(-924.261 -1266.037)"/><path class="b" d="M1069.162,1212.505v-1.249h1.589V1195.02h2.553v16.236h1.347v1.249Z" transform="translate(-962.718 -1195.02)"/><path class="b" d="M1098.676,1212.505v-1.249h1.786V1195.02h2.553v17.485Z" transform="translate(-986.743 -1195.02)"/><path class="b" d="M1141.581,1212.505v1.249h-8.556v-8.743h2.5v7.494h3.561V1195.02h2.5v17.485Z" transform="translate(-1014.704 -1195.02)"/><path class="b" d="M1185.568,1212.505V1195.02h2.564v16.236h1.1v1.249Z" transform="translate(-1057.475 -1195.02)"/><path class="b" d="M1214.031,1283.511l-8.786.011v-1.249l8.786-.011Z" transform="translate(-1073.492 -1266.037)"/><path class="b" d="M1261.274,1283.511l-8.786.011v-1.249l8.786-.011Z" transform="translate(-1111.949 -1266.037)"/><path class="b" d="M1308.519,1283.511l-8.786.011v-1.249l8.786-.011Z" transform="translate(-1150.407 -1266.037)"/><path class="b" d="M1355.763,1283.511l-8.786.011v-1.249l8.786-.011Z" transform="translate(-1188.865 -1266.037)"/><path class="b" d="M1403.007,1283.511l-8.786.011v-1.249l8.786-.011Z" transform="translate(-1227.322 -1266.037)"/><path class="b" d="M1450.251,1283.511l-8.787.011v-1.249l8.787-.011Z" transform="translate(-1265.78 -1266.037)"/><path class="b" d="M1498.92,1222.911h-10.211v-1.249h7.713v-1.873h-4.963v-8.118h7.461v11.24Zm-4.963-15.108h2.5v1.873h-2.5Zm2.465,5.116h-2.465v5.62h2.465Z" transform="translate(-1304.238 -1205.426)"/></g></svg>